<?xml version="1.0"?>
<svg xmlns="http://www.w3.org/2000/svg" xmlns:xlink="http://www.w3.org/1999/xlink" xmlns:svgjs="http://svgjs.com/svgjs" version="1.1" width="35" height="35" x="0" y="0" viewBox="0 0 489.8 489.8" style="enable-background:new 0 0 512 512" xml:space="preserve"><g>
<g xmlns="http://www.w3.org/2000/svg">
	<path d="M467.9,489.75H224.1c-17.3,0-27.1-20.7-14.6-34.4l61.4-61.5l-175-177.1l-61.5,61.5c-8.9,10.8-34.4,6.1-34.4-14.6V20.85   c0-11.5,9.4-20.8,20.8-20.8h243.8c18.2,0,27,22.8,14.6,34.4l-61.4,61.4l176.1,176.1l61.5-61.5c13.1-13.1,34.4-2.7,34.4,14.6v243.8   C488.7,480.35,479.3,489.75,467.9,489.75z M274.1,449.05h174v-174l-41.7,41.7c-8.3,8.3-20.8,8.3-29.2,0L173,111.45   c-9.6-9.6-8.1-21,0-29.2l41.7-41.7h-175v174l41.7-41.7c7.3-7.3,20.8-7.3,29.2,0l205.3,205.3c8.3,8.3,8.3,20.8,0,29.2L274.1,449.05z   " fill="#f8d14c" data-original="#000000" style=""/>
</g>
<g xmlns="http://www.w3.org/2000/svg">
</g>
<g xmlns="http://www.w3.org/2000/svg">
</g>
<g xmlns="http://www.w3.org/2000/svg">
</g>
<g xmlns="http://www.w3.org/2000/svg">
</g>
<g xmlns="http://www.w3.org/2000/svg">
</g>
<g xmlns="http://www.w3.org/2000/svg">
</g>
<g xmlns="http://www.w3.org/2000/svg">
</g>
<g xmlns="http://www.w3.org/2000/svg">
</g>
<g xmlns="http://www.w3.org/2000/svg">
</g>
<g xmlns="http://www.w3.org/2000/svg">
</g>
<g xmlns="http://www.w3.org/2000/svg">
</g>
<g xmlns="http://www.w3.org/2000/svg">
</g>
<g xmlns="http://www.w3.org/2000/svg">
</g>
<g xmlns="http://www.w3.org/2000/svg">
</g>
<g xmlns="http://www.w3.org/2000/svg">
</g>
</g></svg>
