<?xml version="1.0"?>
<svg xmlns="http://www.w3.org/2000/svg" xmlns:xlink="http://www.w3.org/1999/xlink" xmlns:svgjs="http://svgjs.com/svgjs" version="1.1" width="512" height="512" x="0" y="0" viewBox="0 0 448 448" style="enable-background:new 0 0 512 512" xml:space="preserve" class=""><g transform="matrix(0.6699999999999999,0,0,0.6699999999999999,73.92000000000002,73.92000000000002)">
<g xmlns="http://www.w3.org/2000/svg">
	<g>
		<path d="M438.112,281.44c-5.984-2.496-12.864-1.088-17.44,3.456l-33.952,33.952l-257.6-257.6l33.952-33.952    c4.576-4.576,5.952-11.456,3.456-17.44C164.064,3.904,158.24,0,151.776,0H16C7.168,0,0,7.168,0,16v135.776    c0,6.464,3.904,12.288,9.888,14.784c5.984,2.496,12.864,1.088,17.44-3.456l33.952-33.952l257.6,257.6l-33.952,33.952    c-4.576,4.576-5.952,11.456-3.456,17.44c2.464,5.952,8.288,9.856,14.752,9.856H432c8.832,0,16-7.168,16-16V296.224    C448,289.76,444.096,283.936,438.112,281.44z" fill="#f8d14c" data-original="#000000" style="" class=""/>
	</g>
</g>
</svg>
